<svg xmlns="http://www.w3.org/2000/svg" viewBox="0 0 42 31.48"><defs><style>.cls-1{fill:none;stroke:#333;stroke-linecap:round;stroke-linejoin:round;stroke-width:2px;}.cls-2,.cls-3{fill:#333;}.cls-3{font-size:6px;font-family:NotoSansKR-Medium-KSCpc-EUC-H, Noto Sans KR;}.cls-4{letter-spacing:-0.01em;}</style></defs><title>Asset 1</title><g id="Layer_2" data-name="Layer 2"><g id="Layer_1-2" data-name="Layer 1"><line class="cls-1" x1="11.4" y1="12.64" x2="13.19" y2="12.65"/><line class="cls-1" x1="17.98" y1="12.8" x2="30.28" y2="12.9"/><path class="cls-2" d="M12.7,1.17h0M29.53,2l.63,2.35H11.84L12.47,2H29.53m.87-2H11.6a.89.89,0,0,0-.84.65L9.53,5.23a.89.89,0,0,0,.84,1.12H31.63a.89.89,0,0,0,.84-1.12L31.24.65A.89.89,0,0,0,30.4,0Z"/><path class="cls-2" d="M16.38,1.07h0m9.4.93.4,2.35H15.82L16.22,2h9.56m.95-2H15.27a.88.88,0,0,0-.86.73l-1,5.62H28.56l-1-5.62A.88.88,0,0,0,26.73,0Z"/><path class="cls-2" d="M20.68,1h0M21.38,2l.14,2.35h-1L20.62,2h.76m1.07-2h-2.9a.86.86,0,0,0-.86.83l-.34,5.52h5.3L23.31.83A.86.86,0,0,0,22.45,0Z"/><polyline class="cls-1" points="31.06 5.46 31.06 16 10.94 16 10.94 5.46"/><rect class="cls-1" x="13.9" y="9.19" width="3.31" height="6.56"/><polyline class="cls-1" points="34.79 12.8 41 12.8 41 30.48 1 30.48 1 12.8 6.68 12.8"/><text class="cls-3" transform="translate(4.58 24.88)">F<tspan class="cls-4" x="3.4" y="0">R</tspan><tspan x="7.3" y="0">ANCHISE</tspan></text></g></g></svg>