<svg xmlns="http://www.w3.org/2000/svg" viewBox="0 0 37 39"><defs><style>.cls-1,.cls-2{fill:none;stroke:#333;stroke-linecap:round;stroke-linejoin:round;}.cls-1{stroke-width:2px;}.cls-2{stroke-width:0.7px;}</style></defs><title>Asset 3</title><g id="Layer_2" data-name="Layer 2"><g id="Layer_1-2" data-name="Layer 1"><path class="cls-1" d="M3.89,19.08,1.1,23.29a.57.57,0,0,0,.41.88l3.2,1"/><path class="cls-1" d="M4,19a13,13,0,1,1,26,0,14.93,14.93,0,0,1-4.52,10.52"/><path class="cls-1" d="M10,30.82c-2.37-.31-5-1.35-5-3.2V25.29"/><polyline class="cls-1" points="25.39 30 25.39 38 10.31 38 10.31 30.9 10.31 30.85"/><path class="cls-1" d="M27.18,17.68c0,3.65-4.87,5.59-9.51,5.59s-9.5-4-9.5-7.62,4.87-6.6,9.5-6.6S27.18,14,27.18,17.68Z"/><polygon class="cls-2" points="18.35 14.73 20.76 13.88 20.28 15.41 23.75 15.68 21.16 16.42 24.07 17.68 20.58 17.29 21.56 18.96 18.81 17.62 17.41 18.91 16.67 17.24 13.55 17.55 15.18 16.34 11.79 15.53 15.02 15.34 12.95 13.78 16.27 14.7 16.5 13.13 18.35 14.73"/><line class="cls-1" x1="32.07" y1="20.88" x2="36" y2="21.75"/><line class="cls-1" x1="3.12" y1="6" x2="6.53" y2="7.91"/><line class="cls-1" x1="16.18" y1="1" x2="16.54" y2="3.79"/><line class="cls-1" x1="28.58" y1="8.13" x2="31.75" y2="4.85"/><line class="cls-1" x1="32.01" y1="13.62" x2="34.98" y2="13.51"/></g></g></svg>